<svg width="70" height="16" viewBox="0 0 70 16" fill="none" xmlns="http://www.w3.org/2000/svg">
<path d="M7 12.757L2.67414 15.377L3.64015 10.1158L0 6.4739L4.92325 5.84214L7 0.971191L9.07675 5.84214L14 6.4739L10.3599 10.1158L11.3259 15.377L7 12.757Z" fill="#009BAA"/>
<path d="M21 12.757L16.6741 15.377L17.6401 10.1158L14 6.4739L18.9232 5.84214L21 0.971191L23.0768 5.84214L28 6.4739L24.3599 10.1158L25.3259 15.377L21 12.757Z" fill="#009BAA"/>
<path d="M35 12.757L30.6741 15.377L31.6401 10.1158L28 6.4739L32.9232 5.84214L35 0.971191L37.0768 5.84214L42 6.4739L38.3599 10.1158L39.3259 15.377L35 12.757Z" fill="#009BAA"/>
<path d="M49 12.757L44.6741 15.377L45.6401 10.1158L42 6.4739L46.9232 5.84214L49 0.971191L51.0768 5.84214L56 6.4739L52.3599 10.1158L53.3259 15.377L49 12.757Z" fill="#009BAA"/>
<path d="M63 12.757L58.6741 15.377L59.6401 10.1158L56 6.4739L60.9232 5.84214L63 0.971191L65.0768 5.84214L70 6.4739L66.3599 10.1158L67.3259 15.377L63 12.757Z" fill="#009BAA"/>
</svg>
