<svg width="70" height="14" viewBox="0 0 70 14" fill="none" xmlns="http://www.w3.org/2000/svg">
<path d="M7.25362 11.0229L7 10.8737L6.74638 11.0229L3.36998 13.0103L4.13146 8.97987L4.18133 8.71586L3.9887 8.52856L1.09502 5.71502L4.98512 5.2299L5.267 5.19474L5.38112 4.93461L7 1.24455L8.61888 4.93461L8.733 5.19474L9.01488 5.2299L12.905 5.71502L10.0113 8.52856L9.81866 8.71586L9.86854 8.97987L10.63 13.0103L7.25362 11.0229Z" fill="#009BAA" stroke="#009BAA"/>
<path d="M21.2536 11.0229L21 10.8737L20.7464 11.0229L17.37 13.0103L18.1315 8.97987L18.1813 8.71586L17.9887 8.52856L15.095 5.71502L18.9851 5.2299L19.267 5.19474L19.3811 4.93461L21 1.24455L22.6189 4.93461L22.733 5.19474L23.0149 5.2299L26.905 5.71502L24.0113 8.52856L23.8187 8.71586L23.8685 8.97987L24.63 13.0103L21.2536 11.0229Z" fill="#009BAA" stroke="#009BAA"/>
<path d="M35.2536 11.0229L35 10.8737L34.7464 11.0229L31.37 13.0103L32.1315 8.97987L32.1813 8.71586L31.9887 8.52856L29.095 5.71502L32.9851 5.2299L33.267 5.19474L33.3811 4.93461L35 1.24455L36.6189 4.93461L36.733 5.19474L37.0149 5.2299L40.905 5.71502L38.0113 8.52856L37.8187 8.71586L37.8685 8.97987L38.63 13.0103L35.2536 11.0229Z" fill="#009BAA" stroke="#009BAA"/>
<path d="M49.2536 11.0229L49 10.8737L48.7464 11.0229L45.37 13.0103L46.1315 8.97987L46.1813 8.71586L45.9887 8.52856L43.095 5.71502L46.9851 5.2299L47.267 5.19474L47.3811 4.93461L49 1.24455L50.6189 4.93461L50.733 5.19474L51.0149 5.2299L54.905 5.71502L52.0113 8.52856L51.8187 8.71586L51.8685 8.97987L52.63 13.0103L49.2536 11.0229Z" fill="#009BAA" stroke="#009BAA"/>
<path d="M63.2536 11.0229L63 10.8737L62.7464 11.0229L59.37 13.0103L60.1315 8.97987L60.1813 8.71586L59.9887 8.52856L57.095 5.71502L60.9851 5.2299L61.267 5.19474L61.3811 4.93461L63 1.24455L64.6189 4.93461L64.733 5.19474L65.0149 5.2299L68.905 5.71502L66.0113 8.52856L65.8187 8.71586L65.8685 8.97987L66.63 13.0103L63.2536 11.0229Z" stroke="#009BAA"/>
</svg>
