<svg width="31" height="27" viewBox="0 0 31 27" fill="none" xmlns="http://www.w3.org/2000/svg">
<g clip-path="url(#clip0_1_170)">
<path d="M4.24799 4L26.748 4C27.0795 4 27.3974 4.11714 27.6319 4.32566C27.8663 4.53417 27.998 4.81698 27.998 5.11187V22.9018C27.998 23.1966 27.8663 23.4794 27.6319 23.688C27.3974 23.8965 27.0795 24.0136 26.748 24.0136H4.24799C3.91647 24.0136 3.59852 23.8965 3.3641 23.688C3.12968 23.4794 2.99799 23.1966 2.99799 22.9018L2.99799 5.11187C2.99799 4.81698 3.12968 4.53417 3.3641 4.32566C3.59852 4.11714 3.91647 4 4.24799 4ZM25.498 14.0068H5.49799V21.7899H25.498V14.0068ZM25.498 9.55934V6.22374H5.49799V9.55934H25.498Z" fill="#333333"/>
</g>
<defs>
<clipPath id="clip0_1_170">
<rect width="31" height="27" fill="white"/>
</clipPath>
</defs>
</svg>
