<svg width="31" height="28" viewBox="0 0 31 28" fill="none" xmlns="http://www.w3.org/2000/svg">
<g clip-path="url(#clip0_1_176)">
<path d="M11.5798 20.6807C11.4262 21.6393 10.889 22.5163 10.0668 23.1509C9.2446 23.7854 8.19264 24.1347 7.10413 24.1347C6.01561 24.1347 4.96365 23.7854 4.14146 23.1509C3.31926 22.5163 2.78205 21.6393 2.6285 20.6807H1.29163V6.89356C1.29163 6.58884 1.42771 6.29661 1.66995 6.08114C1.91218 5.86568 2.24072 5.74463 2.58329 5.74463H20.6666C21.0092 5.74463 21.3377 5.86568 21.58 6.08114C21.8222 6.29661 21.9583 6.58884 21.9583 6.89356V9.19142H25.8333L29.7083 13.8515V20.6807H27.0798C26.9262 21.6393 26.389 22.5163 25.5668 23.1509C24.7446 23.7854 23.6926 24.1347 22.6041 24.1347C21.5156 24.1347 20.4636 23.7854 19.6415 23.1509C18.8193 22.5163 18.2821 21.6393 18.1285 20.6807H11.5798ZM19.375 8.04249H3.87496V17.2914C4.3846 16.8286 5.0124 16.4822 5.70493 16.2816C6.39746 16.081 7.13421 16.0323 7.85249 16.1394C8.57076 16.2466 9.24929 16.5066 9.83033 16.8972C10.4114 17.2878 10.8777 17.7975 11.1897 18.3829H18.5186C18.7356 17.9773 19.0262 17.6085 19.375 17.2914V8.04249ZM21.9583 14.9361H27.125V14.6086L24.5313 11.4893H21.9583V14.9361ZM22.6041 21.8296C23.1182 21.8296 23.6111 21.648 23.9746 21.3247C24.3381 21.0014 24.5423 20.5629 24.5423 20.1057C24.5423 19.6485 24.3381 19.21 23.9746 18.8866C23.6111 18.5633 23.1182 18.3817 22.6041 18.3817C22.0901 18.3817 21.5971 18.5633 21.2336 18.8866C20.8702 19.21 20.666 19.6485 20.666 20.1057C20.666 20.5629 20.8702 21.0014 21.2336 21.3247C21.5971 21.648 22.0901 21.8296 22.6041 21.8296ZM9.04163 20.1063C9.04163 19.8799 8.99151 19.6558 8.89414 19.4467C8.79677 19.2376 8.65406 19.0477 8.47415 18.8876C8.29423 18.7276 8.08064 18.6007 7.84557 18.514C7.61051 18.4274 7.35856 18.3829 7.10413 18.3829C6.84969 18.3829 6.59774 18.4274 6.36268 18.514C6.12761 18.6007 5.91402 18.7276 5.73411 18.8876C5.55419 19.0477 5.41148 19.2376 5.31411 19.4467C5.21674 19.6558 5.16663 19.8799 5.16663 20.1063C5.16663 20.5633 5.37075 21.0017 5.73411 21.3249C6.09746 21.6481 6.59027 21.8296 7.10413 21.8296C7.61798 21.8296 8.11079 21.6481 8.47415 21.3249C8.8375 21.0017 9.04163 20.5633 9.04163 20.1063Z" fill="#333333"/>
</g>
<defs>
<clipPath id="clip0_1_176">
<rect width="31" height="27.5743" fill="white"/>
</clipPath>
</defs>
</svg>
