<svg width="16" height="16" viewBox="0 0 16 16" fill="none" xmlns="http://www.w3.org/2000/svg">
<g clip-path="url(#clip0_1_262)">
<path d="M8.00005 2C11.5947 2 14.5854 4.58667 15.2127 8C14.5861 11.4133 11.5947 14 8.00005 14C4.40538 14 1.41472 11.4133 0.787384 8C1.41405 4.58667 4.40538 2 8.00005 2ZM8.00005 12.6667C9.3597 12.6664 10.679 12.2045 11.742 11.3568C12.8049 10.509 13.5487 9.32552 13.8514 8C13.5475 6.67554 12.8033 5.49334 11.7405 4.64668C10.6776 3.80003 9.35892 3.33902 8.00005 3.33902C6.64118 3.33902 5.32251 3.80003 4.25963 4.64668C3.19676 5.49334 2.45256 6.67554 2.14872 8C2.45145 9.32552 3.19517 10.509 4.25815 11.3568C5.32113 12.2045 6.6404 12.6664 8.00005 12.6667ZM8.00005 11C7.2044 11 6.44134 10.6839 5.87873 10.1213C5.31612 9.55871 5.00005 8.79565 5.00005 8C5.00005 7.20435 5.31612 6.44129 5.87873 5.87868C6.44134 5.31607 7.2044 5 8.00005 5C8.7957 5 9.55876 5.31607 10.1214 5.87868C10.684 6.44129 11.0001 7.20435 11.0001 8C11.0001 8.79565 10.684 9.55871 10.1214 10.1213C9.55876 10.6839 8.7957 11 8.00005 11ZM8.00005 9.66667C8.44208 9.66667 8.866 9.49107 9.17856 9.17851C9.49112 8.86595 9.66672 8.44203 9.66672 8C9.66672 7.55797 9.49112 7.13405 9.17856 6.82149C8.866 6.50893 8.44208 6.33333 8.00005 6.33333C7.55802 6.33333 7.1341 6.50893 6.82154 6.82149C6.50898 7.13405 6.33338 7.55797 6.33338 8C6.33338 8.44203 6.50898 8.86595 6.82154 9.17851C7.1341 9.49107 7.55802 9.66667 8.00005 9.66667Z" fill="#333333"/>
</g>
<defs>
<clipPath id="clip0_1_262">
<rect width="16" height="16" fill="white"/>
</clipPath>
</defs>
</svg>
