<svg width="30" height="26" viewBox="0 0 30 26" fill="none" xmlns="http://www.w3.org/2000/svg">
<path d="M13.6667 9.16667V6.83333C13.6667 5.28624 14.2812 3.80251 15.3752 2.70854C16.4692 1.61458 17.9529 1 19.5 1C21.0471 1 22.5308 1.61458 23.6248 2.70854C24.7188 3.80251 25.3333 5.28624 25.3333 6.83333V9.16667H28.8333C29.1428 9.16667 29.4395 9.28958 29.6583 9.50838C29.8771 9.72717 30 10.0239 30 10.3333V24.3333C30 24.6428 29.8771 24.9395 29.6583 25.1583C29.4395 25.3771 29.1428 25.5 28.8333 25.5H10.1667C9.85725 25.5 9.5605 25.3771 9.34171 25.1583C9.12292 24.9395 9 24.6428 9 24.3333V10.3333C9 10.0239 9.12292 9.72717 9.34171 9.50838C9.5605 9.28958 9.85725 9.16667 10.1667 9.16667H13.6667ZM13.6667 11.5H11.3333V23.1667H27.6667V11.5H25.3333V13.8333H23V11.5H16V13.8333H13.6667V11.5ZM16 9.16667H23V6.83333C23 5.90508 22.6313 5.01484 21.9749 4.35846C21.3185 3.70208 20.4283 3.33333 19.5 3.33333C18.5717 3.33333 17.6815 3.70208 17.0251 4.35846C16.3687 5.01484 16 5.90508 16 6.83333V9.16667Z" fill="#AA8232"/>
<circle cx="7" cy="11" r="7" fill="#B90032"/>
<path d="M7.051 14.108C6.529 14.108 6.064 13.979 5.656 13.721C5.248 13.463 4.927 13.091 4.693 12.605C4.465 12.113 4.351 11.528 4.351 10.85C4.351 10.172 4.465 9.59 4.693 9.104C4.927 8.612 5.248 8.237 5.656 7.979C6.064 7.721 6.529 7.592 7.051 7.592C7.573 7.592 8.038 7.721 8.446 7.979C8.854 8.237 9.172 8.612 9.4 9.104C9.634 9.59 9.751 10.172 9.751 10.85C9.751 11.528 9.634 12.113 9.4 12.605C9.172 13.091 8.854 13.463 8.446 13.721C8.038 13.979 7.573 14.108 7.051 14.108ZM7.051 12.875C7.435 12.875 7.735 12.71 7.951 12.38C8.173 12.05 8.284 11.54 8.284 10.85C8.284 10.16 8.173 9.65 7.951 9.32C7.735 8.99 7.435 8.825 7.051 8.825C6.673 8.825 6.373 8.99 6.151 9.32C5.935 9.65 5.827 10.16 5.827 10.85C5.827 11.54 5.935 12.05 6.151 12.38C6.373 12.71 6.673 12.875 7.051 12.875Z" fill="white"/>
</svg>
