<svg width="48" height="48" viewBox="0 0 48 48" fill="none" xmlns="http://www.w3.org/2000/svg">
<g clip-path="url(#clip0_1_153)">
<path d="M39.212 13.99C39.06 13.394 38.628 12.944 38.134 12.806C37.26 12.56 33 12 24 12C15 12 10.744 12.56 9.862 12.806C9.374 12.942 8.942 13.392 8.788 13.99C8.57 14.838 8 18.392 8 24C8 29.608 8.57 33.16 8.788 34.012C8.94 34.606 9.372 35.056 9.864 35.192C10.744 35.44 15 36 24 36C33 36 37.258 35.44 38.138 35.194C38.626 35.058 39.058 34.608 39.212 34.01C39.43 33.162 40 29.6 40 24C40 18.4 39.43 14.84 39.212 13.99ZM43.086 12.996C44 16.56 44 24 44 24C44 24 44 31.44 43.086 35.004C42.578 36.974 41.092 38.524 39.21 39.048C35.792 40 24 40 24 40C24 40 12.214 40 8.79 39.048C6.9 38.516 5.416 36.968 4.914 35.004C4 31.44 4 24 4 24C4 24 4 16.56 4.914 12.996C5.422 11.026 6.908 9.476 8.79 8.952C12.214 8 24 8 24 8C24 8 35.792 8 39.21 8.952C41.1 9.484 42.584 11.032 43.086 12.996ZM20 31V17L32 24L20 31Z" fill="#00002D"/>
</g>
<defs>
<clipPath id="clip0_1_153">
<rect width="48" height="48" fill="white"/>
</clipPath>
</defs>
</svg>
